<svg xmlns="http://www.w3.org/2000/svg" xmlns:xlink="http://www.w3.org/1999/xlink" width="500" zoomAndPan="magnify" viewBox="0 0 375 374.999991" height="500" preserveAspectRatio="xMidYMid meet" version="1.0"><defs><clipPath id="8145507a65"><path d="M 15.273438 147 L 188 147 L 188 299.730469 L 15.273438 299.730469 Z M 15.273438 147 " clip-rule="nonzero"/></clipPath><clipPath id="1ac3183140"><path d="M 187 68 L 359.523438 68 L 359.523438 220 L 187 220 Z M 187 68 " clip-rule="nonzero"/></clipPath></defs><g clip-path="url(#8145507a65)"><path fill="#0652e9" d="M 131.253906 255.246094 L 131.253906 276.210938 L 36.304688 232.101562 L 36.304688 215.089844 L 131.253906 170.976562 L 131.253906 191.949219 L 59.449219 223.394531 L 59.449219 223.792969 Z M 187.644531 147.679688 L 28.859375 147.679688 C 21.363281 147.679688 15.285156 153.753906 15.285156 161.253906 L 15.285156 285.9375 C 15.285156 293.433594 21.363281 299.507812 28.859375 299.507812 L 143.566406 299.507812 L 187.644531 147.679688 " fill-opacity="1" fill-rule="nonzero"/></g><g clip-path="url(#1ac3183140)"><path fill="#62e1e9" d="M 338.722656 153.074219 L 243.777344 196.589844 L 243.777344 175.621094 L 317.164062 144.171875 L 317.164062 143.773438 L 243.777344 112.320312 L 243.777344 91.355469 L 338.722656 134.875 Z M 231.726562 68.058594 L 187.644531 219.886719 L 346.171875 219.886719 C 353.667969 219.886719 359.746094 213.8125 359.746094 206.3125 L 359.746094 81.628906 C 359.746094 74.136719 353.667969 68.058594 346.171875 68.058594 L 231.726562 68.058594 " fill-opacity="1" fill-rule="nonzero"/></g></svg>